<?xml version="1.0" encoding="iso-8859-1"?>
<!-- Generator: Adobe Illustrator 19.0.0, SVG Export Plug-In . SVG Version: 6.00 Build 0)  -->
<svg version="1.1" id="Capa_1" xmlns="http://www.w3.org/2000/svg" xmlns:xlink="http://www.w3.org/1999/xlink" x="0px" y="0px"
	 viewBox="0 0 512 512" style="enable-background:new 0 0 512 512;" xml:space="preserve">
<path style="fill:#424C59;" d="M483.615,150.078V439.08l-455.224-2.028V150.078c0-20.125,16.313-36.448,36.448-36.448h382.327
	C467.292,113.63,483.615,129.953,483.615,150.078z"/>
<g>
	<polygon style="fill:#242C35;" points="483.615,395.484 483.615,439.08 28.391,437.052 28.391,395.484 	"/>
	<path style="fill:#242C35;" d="M504.399,414.747c0,17.611-7.391,33.488-19.243,44.711c-11.031,10.453-25.935,16.861-42.329,16.861
		H69.179c-17.002,0-32.393-6.894-43.535-18.037S7.607,431.749,7.607,414.747H504.399z"/>
</g>
<path style="fill:#424C59;" d="M504.399,414.747c0,17.611-7.391,33.488-19.243,44.711c-2.9,0.426-5.86,0.639-8.871,0.639H102.636
	c-17.002,0-32.393-6.894-43.535-18.037c-7.462-7.462-13.018-16.83-15.877-27.313H504.399z"/>
<rect x="60.832" y="146.078" style="fill:#45B8C4;" width="390.337" height="236.23"/>
<g>
	<path style="fill:#F9572B;" d="M357.494,180.611h4.322c11.294,0,21.515,4.574,28.919,11.978
		c7.404,7.404,11.978,17.625,11.978,28.919c0,22.589-18.308,40.897-40.897,40.897h-5.619"/>
	<path style="fill:#F9572B;" d="M159.786,180.611h-4.336c-22.589,0-40.897,18.308-40.897,40.897
		c0,11.294,4.574,21.515,11.978,28.919c7.404,7.404,17.625,11.978,28.919,11.978h5.633"/>
</g>
<path style="fill:#FCC63D;" d="M390.739,382.299H126.53c19.052-54.596,71.017-93.772,132.104-93.772
	c38.633,0,73.613,15.663,98.929,40.989C372.288,344.231,383.742,362.226,390.739,382.299z"/>
<path style="fill:#D8A32E;" d="M258.642,288.53c-36.446,0-67.446,39.175-78.818,93.771h-53.299
	C145.59,327.705,197.554,288.53,258.642,288.53z"/>
<path style="fill:#FFE2C5;" d="M258.635,339.055L258.635,339.055c-55.444,0-100.39-44.945-100.39-100.39v-40.423
	c0-55.444,44.945-100.39,100.39-100.39l0,0c55.444,0,100.389,44.945,100.389,100.39v40.423
	C359.025,294.11,314.078,339.055,258.635,339.055z"/>
<path style="fill:#E5C4A5;" d="M258.627,339.052c-55.438,0-100.382-44.944-100.382-100.382v-40.425
	c0-55.45,44.944-100.395,100.382-100.395c-28.128,0-50.942,44.944-50.942,100.395v40.425
	C207.684,294.108,230.499,339.052,258.627,339.052z"/>
<path style="fill:#424C59;" d="M357.103,178.603c-12.045,7.993-26.469,12.646-41.999,12.646c-32.528,0-60.271-20.459-71.113-49.2
	c-6.575,17.441-19.365,31.83-35.677,40.437c-10.578,5.602-22.634,8.763-35.436,8.763c-4.869,0-9.641-0.456-14.268-1.346
	l-0.012-0.108c4.303-51.495,47.445-91.944,100.034-91.944c27.731,0,52.818,11.24,70.993,29.402
	C343.389,141.015,353.161,158.758,357.103,178.603z"/>
<path style="fill:#242C35;" d="M258.632,97.85c-25.411,0-46.484,36.674-50.318,84.636c-10.578,5.602-22.634,8.763-35.436,8.763
	c-4.869,0-9.641-0.456-14.268-1.346l-0.012-0.108C162.901,138.299,206.043,97.85,258.632,97.85z"/>
<path d="M504.396,407.143H7.604c-4.199,0-7.604,3.405-7.604,7.604c0,38.145,31.032,69.177,69.177,69.177h36.421
	c4.199,0,7.604-3.405,7.604-7.604c0-4.199-3.405-7.604-7.604-7.604H69.177c-27.178,0-49.728-20.194-53.435-46.365h480.516
	c-3.707,26.171-26.257,46.365-53.435,46.365H130.946c-4.199,0-7.604,3.405-7.604,7.604c0,4.199,3.405,7.604,7.604,7.604h311.877
	c38.145,0,69.177-31.032,69.177-69.177C512,410.547,508.595,407.143,504.396,407.143z"/>
<path d="M415.322,121.234h31.845c15.905,0,28.844,12.94,28.844,28.844v239.32c0,4.199,3.405,7.604,7.604,7.604
	c4.199,0,7.604-3.405,7.604-7.604v-239.32c0-24.29-19.762-44.052-44.052-44.052h-31.845c-4.199,0-7.604,3.405-7.604,7.604
	C407.718,117.829,411.122,121.234,415.322,121.234z"/>
<path d="M28.391,397.002c4.199,0,7.604-3.405,7.604-7.604v-239.32c0-15.905,12.94-28.844,28.844-28.844h34.173
	c4.199,0,7.604-3.405,7.604-7.604c0-4.199-3.405-7.604-7.604-7.604H64.839c-24.29,0-44.052,19.762-44.052,44.052v239.32
	C20.787,393.598,24.192,397.002,28.391,397.002z"/>
<path d="M155.283,270.005c4.143,13.635,10.913,26.137,19.724,36.912c-17.167,11.85-31.78,27.323-42.588,45.171
	c-2.176,3.592-1.026,8.268,2.566,10.443c1.231,0.745,2.589,1.1,3.931,1.1c2.572,0,5.082-1.306,6.512-3.666
	c10.101-16.682,23.917-31.04,40.161-41.832c19.242,17.7,44.902,28.526,73.046,28.526c28.147,0,53.809-10.828,73.051-28.531
	c7.355,4.881,14.24,10.494,20.506,16.761c7.563,7.563,14.171,15.996,19.637,25.063c1.429,2.368,3.942,3.678,6.519,3.678
	c1.336,0,2.691-0.353,3.919-1.093c3.596-2.169,4.754-6.843,2.585-10.438c-6.103-10.121-13.474-19.53-21.908-27.964
	c-6.364-6.364-13.294-12.134-20.678-17.225c8.807-10.773,15.576-23.273,19.719-36.906c12.815-0.044,24.467-5.091,33.124-13.277
	v12.948c0,11.301-9.194,20.493-20.494,20.493c-4.199,0-7.604,3.405-7.604,7.604c0,4.199,3.405,7.604,7.604,7.604
	c19.686,0,35.702-16.016,35.702-35.701V179.76c0-83.64-68.045-151.684-151.685-151.684S106.948,96.122,106.948,179.76v41.746
	c0,12.956,5.045,25.136,14.204,34.296C130.273,264.926,142.389,269.962,155.283,270.005z M131.906,245.051
	c-6.288-6.288-9.75-14.648-9.75-23.543c0-16.877,12.627-30.852,28.927-32.997c-0.288,3.207-0.443,6.451-0.443,9.732v40.424
	c0,5.413,0.406,10.733,1.178,15.934C144.298,253.789,137.331,250.474,131.906,245.051z M258.635,105.457
	c43.125,0,79.471,29.573,89.827,69.504c-10.154,5.693-21.583,8.682-33.357,8.682c-28.296,0-54.014-17.791-63.998-44.272
	c-1.117-2.961-3.95-4.921-7.115-4.921s-5.999,1.961-7.115,4.921c-9.982,26.48-35.701,44.272-63.998,44.272
	c-1.953,0-3.9-0.095-5.835-0.26C174.177,139.259,212.53,105.457,258.635,105.457z M258.634,331.451
	c-51.162,0-92.786-41.623-92.786-92.786v-40.127c2.333,0.196,4.679,0.311,7.03,0.311c29.152,0,56.068-15.45,71.113-39.687
	c15.046,24.235,41.961,39.687,71.113,39.687c12.574,0,24.828-2.797,36.008-8.146c0.201,2.487,0.307,5,0.307,7.538v40.424
	C351.421,289.828,309.798,331.451,258.634,331.451L258.634,331.451z M365.45,254.599c0.773-5.201,1.177-10.521,1.177-15.933v-40.424
	c0-3.282-0.156-6.527-0.444-9.736c7.237,0.943,13.928,4.214,19.174,9.459c6.288,6.288,9.75,14.648,9.75,23.542
	C395.109,238.637,382.104,252.782,365.45,254.599z M258.633,43.285c75.254,0,136.476,61.223,136.476,136.476v6.495
	c-8.592-8.126-19.65-12.768-31.454-13.205c-11.379-47.438-54.144-82.803-105.021-82.803c-50.878,0-93.643,35.367-105.021,82.805
	c-12.158,0.455-23.179,5.405-31.458,13.235v-6.527C122.156,104.508,183.379,43.285,258.633,43.285z"/>
<path d="M299.138,220.543c-6.998,0-13.576,2.725-18.523,7.672c-2.97,2.97-2.97,7.784,0,10.753c2.97,2.97,7.784,2.97,10.753,0
	c4.285-4.284,11.255-4.285,15.539,0c1.484,1.484,3.431,2.227,5.376,2.227c1.946,0,3.892-0.742,5.377-2.227
	c2.97-2.97,2.97-7.784,0-10.753C312.713,223.267,306.134,220.543,299.138,220.543z"/>
<path d="M236.655,238.969c2.97-2.97,2.97-7.784,0-10.753c-10.214-10.214-26.832-10.213-37.047,0c-2.97,2.97-2.97,7.784,0,10.754
	c2.97,2.969,7.784,2.97,10.754,0c4.285-4.285,11.255-4.285,15.539,0c1.484,1.484,3.431,2.227,5.377,2.227
	C233.224,241.197,235.17,240.453,236.655,238.969z"/>
<path d="M274.929,275.943c-8.984,8.984-23.604,8.984-32.589,0c-2.97-2.971-7.784-2.97-10.753,0c-2.97,2.97-2.97,7.784,0,10.753
	c7.457,7.457,17.253,11.186,27.048,11.186s19.591-3.729,27.048-11.186c2.97-2.97,2.97-7.784,0-10.753
	C282.713,272.975,277.898,272.975,274.929,275.943z"/>
<path d="M91.41,153.675c4.199,0,7.604-3.405,7.604-7.604s-3.405-7.604-7.604-7.604H60.84c-4.199,0-7.604,3.405-7.604,7.604V382.3
	c0,4.199,3.405,7.604,7.604,7.604h390.337c4.199,0,7.604-3.405,7.604-7.604v-236.23c0-4.199-3.405-7.604-7.604-7.604h-28.25
	c-4.199,0-7.604,3.405-7.604,7.604s3.405,7.604,7.604,7.604h20.646v221.022H68.444V153.675H91.41z"/>
<g>
</g>
<g>
</g>
<g>
</g>
<g>
</g>
<g>
</g>
<g>
</g>
<g>
</g>
<g>
</g>
<g>
</g>
<g>
</g>
<g>
</g>
<g>
</g>
<g>
</g>
<g>
</g>
<g>
</g>
</svg>
